<?xml version="1.0" encoding="UTF-8"?>
<!DOCTYPE svg PUBLIC "-//W3C//DTD SVG 1.1//EN" "http://www.w3.org/Graphics/SVG/1.1/DTD/svg11.dtd">
<!-- Creator: Gary DeWitt, SignTorch.com -->
<svg xmlns="http://www.w3.org/2000/svg" xml:space="preserve" width="8.26208in" height="6.43133in" version="1.1" style="shape-rendering:geometricPrecision; text-rendering:geometricPrecision; image-rendering:optimizeQuality; fill-rule:evenodd; clip-rule:evenodd"
viewBox="0 0 8264 6433"
 xmlns:xlink="http://www.w3.org/1999/xlink">
 <defs>
  <style type="text/css">
   <![CDATA[
    .str0 {stroke:black;stroke-width:1.00024}
    .fil0 {fill:black}
   ]]>
  </style>
 </defs>
 <g id="SignTorch">
  <metadata id="SignTorch"/>
  <path id="clydesdale009_.cmx" class="fil0 str0" d="M2041 1c-40,5 -72,66 -281,63 -250,-2 -254,64 -358,83 -88,18 0,-101 -130,-21 -75,46 -115,113 -198,146 -110,45 -83,72 -152,126 -21,18 -46,-63 -74,23 -21,64 3,98 -59,149 -118,100 -29,122 -162,190 -28,15 -85,54 -48,86 56,48 -43,83 -43,170 1,69 -5,88 -126,79 -117,-9 -197,-84 -221,-27 -23,60 68,156 112,184 97,61 2,76 -71,93 -36,8 -194,33 -208,41 -59,32 -5,159 260,141 80,-5 16,25 22,103 10,133 -25,74 -34,189 -3,47 4,118 53,54 65,-84 43,7 90,99 78,141 51,9 54,-59 1,-15 3,-106 8,-119 21,-45 63,148 92,29 11,-42 21,-82 23,-125 2,-47 20,-27 26,4 7,35 22,68 31,102 87,304 76,413 287,674 118,147 153,224 240,388 117,218 190,169 381,263 209,103 239,-105 333,-144 77,-30 120,-26 92,-149 -25,-108 78,-171 -31,-309 -104,-129 -146,-62 -107,-314 32,-205 -69,-231 -10,-289 25,-25 53,-50 71,-81 22,-37 41,2 63,44 125,241 266,312 312,397 17,31 5,130 5,166 0,245 -14,409 89,638 73,161 63,40 -35,283 -84,210 -69,384 -189,530 -113,137 -167,176 -166,363 0,153 23,144 -4,324 -34,227 -53,247 -116,440 -44,137 -62,306 13,436 43,74 -51,61 81,251 57,81 70,178 136,98 33,-40 32,30 93,125 42,66 100,146 175,174 36,13 25,-43 89,28 67,73 154,110 253,109 179,-2 135,-285 122,-417 -27,-296 -207,-290 -273,-431 -17,-38 42,-42 4,-96 -13,-18 -68,-100 -24,-107 60,-9 17,-48 -6,-85 -98,-169 -205,-89 -223,-226 -13,-108 36,-220 114,-291 83,-76 108,-104 142,-216 61,-200 -4,-226 151,-322 134,-84 196,-149 280,-266 32,-44 37,-53 67,-99 18,-28 35,-57 53,-85 30,-46 28,-77 82,-78 32,0 76,8 139,-28 122,-70 128,-44 227,48 181,169 271,-65 367,253 49,151 98,303 146,455 86,253 7,304 -16,548 -11,113 14,214 88,301 108,125 98,145 106,304 9,190 12,347 -77,522 -44,90 -94,180 -94,284 1,37 64,134 86,154 129,122 297,24 345,22 60,-4 121,50 165,-15 49,-73 87,-32 134,-72 54,-46 -37,-88 -52,-133 -19,-58 60,-34 89,-67 29,-32 -33,-88 -44,-117 -34,-89 -38,-148 -97,-229 -56,-77 -65,-128 -75,-221 -17,-145 -37,-302 14,-442 88,-241 58,-312 -10,-550 -27,-92 -2,-173 26,-262 56,-183 95,-262 95,-453 0,-43 7,-85 3,-127 -4,-34 7,-39 42,-37 70,4 137,8 208,11 73,0 87,73 115,127 69,136 102,189 189,309 66,90 165,182 253,251 79,62 89,112 107,186 24,100 65,200 98,299 26,78 12,77 8,157 -7,110 -44,313 -88,413 -31,68 -166,263 -171,322 -6,57 95,-22 87,25 -20,110 -178,162 -219,303 -8,30 -14,111 41,74 58,-39 50,7 74,46 25,42 92,-3 203,56 94,50 180,70 282,21 187,-88 114,-308 154,-318 38,-10 82,33 46,-173 -29,-165 59,-39 8,-220 -25,-85 -54,-186 -42,-274 9,-65 27,-196 44,-250 41,-135 82,-135 108,-341 47,-356 -135,-358 -291,-543 -51,-61 -118,-245 -135,-312 -21,-87 -63,-324 37,-388 97,-63 224,-132 298,-220 48,-57 42,-2 83,67 42,71 43,87 108,157 105,114 173,74 242,186 128,210 189,240 425,329 263,100 136,260 325,475 133,151 160,140 233,361 23,72 97,313 102,387 8,135 -67,212 -27,380 25,106 -52,183 -14,327 30,112 -31,132 102,186 146,60 167,-66 259,-53 88,12 97,-108 159,-106 116,3 20,-256 -40,-336 -33,-44 -33,-89 28,-49 121,82 39,-105 24,-149 -47,-136 -152,-258 -200,-494 -12,-59 -23,-115 -40,-173 -97,-338 -14,-321 -68,-550 -52,-222 -98,-199 -258,-314 -92,-66 -126,-165 -150,-270 -75,-327 39,-666 -17,-925 -24,-112 -10,-81 -53,-195 -20,-52 55,7 75,126 10,63 17,195 68,243 27,25 38,-13 38,-34 0,-13 -20,-206 4,-201 11,3 16,91 19,104 25,137 26,232 61,382 4,17 12,99 46,63 68,-70 -1,-403 44,-353 9,10 71,183 106,130 29,-43 -49,-301 -15,-303 31,-2 74,37 48,-58 -43,-162 -9,-354 -121,-669 -41,-114 -129,-226 -225,-301 -2,-1 -83,-57 -65,-62 32,-10 136,104 164,60 19,-30 -101,-136 -120,-153 -293,-251 -619,-198 -583,-240 17,-21 90,-24 -31,-70 -102,-38 -165,-59 -277,-57 -179,3 -165,62 -237,36 -73,-26 -236,-61 -309,-70 -486,-57 -586,205 -1244,161 -295,-19 -293,-52 -534,-222 -89,-63 -16,-35 -155,-102 -76,-38 -79,-75 -176,-93 -91,-17 -115,-69 -196,-101 -152,-61 -35,-95 -172,-136 -57,-18 -189,-8 -179,-59 8,-34 58,-39 -50,-77 -75,-26 -153,-2 -169,-51 -20,-63 -113,-13 -177,-58 -65,-46 -65,-66 -153,-60 -177,11 17,-94 -131,-93 -93,1 -175,-41 -269,-36 -199,12 -121,-31 -150,-64 -26,-30 -271,81 -298,10 -6,-17 0,-65 -31,-61z"/>
 </g>
</svg>
